<?xml version="1.0" encoding="UTF-8" standalone="no"?>
<svg
   xmlns:dc="http://purl.org/dc/elements/1.1/"
   xmlns:cc="http://creativecommons.org/ns#"
   xmlns:rdf="http://www.w3.org/1999/02/22-rdf-syntax-ns#"
   xmlns:svg="http://www.w3.org/2000/svg"
   xmlns="http://www.w3.org/2000/svg"
   xmlns:sodipodi="http://sodipodi.sourceforge.net/DTD/sodipodi-0.dtd"
   xmlns:inkscape="http://www.inkscape.org/namespaces/inkscape"
   viewBox="0 0 193.47914 20.635728"
   version="1.1"
   id="svg32"
   sodipodi:docname="navbar-logo.svg"
   width="193.47914"
   height="20.635729"
   inkscape:version="0.92.5 (2060ec1f9f, 2020-04-08)">
  <metadata
     id="metadata38">
    <rdf:RDF>
      <cc:Work
         rdf:about="">
        <dc:format>image/svg+xml</dc:format>
        <dc:type
           rdf:resource="http://purl.org/dc/dcmitype/StillImage" />
        <dc:title></dc:title>
      </cc:Work>
    </rdf:RDF>
  </metadata>
  <defs
     id="defs36" />
  <sodipodi:namedview
     pagecolor="#ffffff"
     bordercolor="#666666"
     borderopacity="1"
     objecttolerance="10"
     gridtolerance="10"
     guidetolerance="10"
     inkscape:pageopacity="0"
     inkscape:pageshadow="2"
     inkscape:window-width="1294"
     inkscape:window-height="704"
     id="namedview34"
     showgrid="false"
     fit-margin-top="0"
     fit-margin-left="0"
     fit-margin-right="0"
     fit-margin-bottom="0"
     inkscape:zoom="1.8499081"
     inkscape:cx="246.79217"
     inkscape:cy="14.843289"
     inkscape:window-x="72"
     inkscape:window-y="27"
     inkscape:window-maximized="1"
     inkscape:current-layer="svg32" />
  <style
     id="style2">.cls-1{fill:#fed136;}</style>
  <g
     aria-label="Leonardo Faustinos Morales"
     style="font-style:normal;font-weight:normal;font-size:40px;line-height:1.25;font-family:sans-serif;letter-spacing:0px;word-spacing:0px;fill:#000000;fill-opacity:1;stroke:none"
     id="text4551">
    <path
       d="M 15.507955,2.3141573 C 15.595955,1.6394906 12.369288,-0.44317614 12.105288,0.08482388 11.166622,1.9621572 6.971955,11.290157 2.6599549,16.746158 c -0.9093334,0.322666 -1.5546667,0.498666 -1.7013334,0.557333 0,0 -1.43733336,3.08 -0.79200002,2.522667 1.43733332,-1.232 4.04800012,-2.786667 9.85600052,-3.197334 0.205333,-0.02933 1.965333,-4.341333 1.466666,-3.754667 -0.909333,1.056001 -2.9919997,1.584001 -5.1919997,2.493334 C 7.939955,11.730157 12.310622,2.7541573 15.507955,2.3141573 Z"
       style="font-style:normal;font-variant:normal;font-weight:normal;font-stretch:normal;font-size:29.33333397px;font-family:Glarious;-inkscape-font-specification:Glarious;fill:#ffff00"
       id="path814" />
    <path
       d="m 14.891952,11.759491 c 0.234667,0.117333 0.909333,0.410666 1.613333,0.352 1.026667,-0.088 2.082667,-1.554667 2.493334,-3.3440003 0.146666,-0.704 -1.906667,-2.0826667 -2.757334,-1.9653333 -1.525333,0.2346666 -3.754666,5.0159996 -4.282666,7.4213336 -0.234667,1.056 1.202666,2.229333 1.906666,2.405333 0.968,0.234667 5.632,-3.901333 6.834667,-6.336 -0.05867,-0.205333 -0.938667,-0.146667 -1.026667,0 -1.906666,3.050667 -5.632,4.898667 -5.925333,4.928 -0.322667,0.02933 0.645333,-2.405333 1.144,-3.461333 z m 2.698667,-2.8746669 c 0.293333,0.2053333 -0.293334,2.1999999 -1.202667,2.3173329 -0.586667,0.088 -0.938667,-0.117333 -1.202667,-0.205333 0.176,-0.557333 1.642667,-2.6986666 2.405334,-2.1119999 z"
       style="font-style:normal;font-variant:normal;font-weight:normal;font-stretch:normal;font-size:29.33333397px;font-family:Glarious;-inkscape-font-specification:Glarious;fill:#ffff00"
       id="path816" />
    <path
       d="m 26.214569,9.1194907 c 0.410666,-1.936 -2.024,-2.728 -3.842667,-2.464 -1.466667,0.2053333 -3.813334,4.4880003 -3.725334,8.3013333 -0.088,0.733334 1.349334,2.024 2.2,1.672 0.469334,-0.205333 2.493334,-2.112 3.344001,-3.285333 0.762666,-0.44 1.965333,-1.114667 3.637333,-3.109334 -0.05867,-0.205333 -0.997333,-0.205333 -1.114667,-0.05867 -0.674666,0.821333 -1.496,1.466666 -1.76,1.672 0.410667,-0.674667 1.026667,-1.584 1.261334,-2.7280003 z m -1.554667,-1.408 c 0.088,-0.029333 0.557333,1.9946667 -1.202667,4.6346663 -0.909333,0.674667 -2.962667,0.704 -1.789333,-1.496 0.909333,-1.7013329 2.493333,-2.9626663 2.992,-3.1386663 z m -2.346667,6.1600003 c -0.674667,0.762667 -1.877333,1.525333 -2.024,1.466667 -0.205333,-0.05867 -0.205333,-0.469334 0.205333,-1.613334 0.264,0.234667 1.437334,0.264 1.818667,0.146667 z"
       style="font-style:normal;font-variant:normal;font-weight:normal;font-stretch:normal;font-size:29.33333397px;font-family:Glarious;-inkscape-font-specification:Glarious;fill:#ffff00"
       id="path818" />
    <path
       d="M 33.958562,8.2101574 C 34.163895,7.7994907 32.755895,6.332824 32.433228,6.5381573 c -0.704,0.058667 -3.52,3.5199997 -4.752,5.0746667 0.44,-1.408 1.202667,-2.4639999 1.525334,-3.52 0.117333,-0.4106666 -1.496,-1.3493333 -1.437334,-0.9386666 0.117334,0.7333333 -2.992,7.3333336 -2.904,7.9200006 0.088,0.586666 1.906667,1.701333 1.936,1.496 0.528,-2.757334 2.992,-6.189334 5.074667,-8.1840006 -0.762667,1.2906667 -3.285333,5.4560006 -2.992,6.3360006 0.234667,0.733333 1.789333,1.789333 2.258667,1.818666 0.762666,-0.381333 3.256,-4.018667 4.576,-6.365333 0.117333,-0.1760002 -1.026667,0 -1.026667,0 -1.144,1.818666 -3.226667,4.546667 -3.754667,4.928 -0.498666,-1.085333 2.141334,-5.8080003 3.021334,-6.8933336 z"
       style="font-style:normal;font-variant:normal;font-weight:normal;font-stretch:normal;font-size:29.33333397px;font-family:Glarious;-inkscape-font-specification:Glarious;fill:#ffff00"
       id="path820" />
    <path
       d="m 42.14256,8.0634907 c 0.293333,-0.352 -1.290667,-1.056 -1.642667,-0.9973333 -0.02933,0.2346666 -0.264,0.528 -0.410667,0.7626666 -2.933333,-5.0453334 -8.154666,6.776 -7.333333,7.773334 0.322667,0.381333 1.173333,1.202666 1.642667,1.026666 0.645333,-0.264 2.64,-2.786666 3.549333,-3.842667 -0.528,0.938667 -0.909333,2.552001 -0.821333,2.845334 0.176,0.616 1.496,1.202667 1.672,1.056 1.085333,-1.056 4.077333,-4.869334 4.869333,-6.6 0.146667,-0.3226669 -1.026667,0 -1.026667,0 -0.762666,1.466666 -2.904,4.106667 -3.344,4.341333 -0.293333,0.176 1.525334,-4.8106666 2.845334,-6.3653333 z m -7.450667,6.6586673 c 0.146667,-1.378667 2.904,-8.037334 4.957333,-6.2773339 -0.762666,1.3786667 -2.288,3.4906669 -4.957333,6.2773339 z"
       style="font-style:normal;font-variant:normal;font-weight:normal;font-stretch:normal;font-size:29.33333397px;font-family:Glarious;-inkscape-font-specification:Glarious;fill:#ffff00"
       id="path822" />
    <path
       d="m 43.6972,7.124824 c -0.557333,1.1146667 -1.994667,5.602667 -2.669333,7.48 -0.176,0.792 1.32,2.2 1.789333,2.024 1.613333,-5.925333 3.842667,-7.3626666 3.989333,-7.4799999 0.762667,-0.528 -0.381333,0.8799999 -0.821333,1.6719999 -0.088,0.176 0.821333,1.026667 1.349333,0.792 0.586667,-0.264 1.642667,-0.762667 2.464,-1.378667 0,0 -0.586666,-0.4399996 -0.645333,-0.3813329 -0.586667,0.4399999 -1.701333,1.1439999 -2.229333,1.2026669 -0.264,0.02933 1.056,-1.2613336 2.053333,-2.8746669 0.234667,-0.3813334 -0.850667,-1.7306668 -1.290667,-1.4373334 -0.909333,0.616 -3.344,3.6666663 -4.605333,6.1013333 0.410667,-1.496 2.053333,-4.8693333 2.434667,-5.1626666 0.088,-0.058667 -1.408,-1.3786667 -1.818667,-0.5573334 z"
       style="font-style:normal;font-variant:normal;font-weight:normal;font-stretch:normal;font-size:29.33333397px;font-family:Glarious;-inkscape-font-specification:Glarious;fill:#ffff00"
       id="path824" />
    <path
       d="m 58.569196,3.4874906 c 0.293333,-0.5866667 -2.610667,-1.9066667 -2.581333,-1.496 0.117333,1.408 -1.261334,4.6933334 -1.877334,5.8373334 -2.786666,-4.8986667 -7.538667,6.482667 -6.834666,7.744 0.44,0.792 1.114666,1.085334 1.584,1.173334 0.352,0.05867 2.845333,-3.461334 3.52,-4.370667 -0.293334,0.762666 -0.498667,0.968 -0.674667,2.552 -0.088,0.762667 1.349333,1.877333 1.584,1.642667 0.410667,-0.410667 3.050667,-3.930667 4.341333,-6.336001 0.117334,-0.205333 -1.026666,0 -1.026666,0 -0.704,1.085334 -2.170667,2.962667 -3.021334,3.842667 -0.264,-0.498666 1.730667,-5.8373333 4.986667,-10.5893334 z m -9.504,11.5280004 c 0.322667,-1.584 3.402667,-8.858667 4.605333,-6.3653336 -1.173333,1.9946666 -3.08,4.5759996 -4.605333,6.3653336 z"
       style="font-style:normal;font-variant:normal;font-weight:normal;font-stretch:normal;font-size:29.33333397px;font-family:Glarious;-inkscape-font-specification:Glarious;fill:#ffff00"
       id="path826" />
    <path
       d="m 63.086511,9.1194907 c 0.410667,-1.936 -2.024,-2.728 -3.842667,-2.464 -1.466666,0.2053333 -3.813333,4.4880003 -3.725333,8.3013333 -0.088,0.733334 1.349333,2.024 2.2,1.672 0.469333,-0.205333 2.493333,-2.112 3.344,-3.285333 0.762667,-0.44 1.965333,-1.114667 3.637333,-3.109334 -0.05867,-0.205333 -0.997333,-0.205333 -1.114666,-0.05867 -0.674667,0.821333 -1.496,1.466666 -1.76,1.672 0.410666,-0.674667 1.026666,-1.584 1.261333,-2.7280003 z m -1.554667,-1.408 c 0.088,-0.029333 0.557334,1.9946667 -1.202666,4.6346663 -0.909334,0.674667 -2.962667,0.704 -1.789334,-1.496 0.909334,-1.7013329 2.493334,-2.9626663 2.992,-3.1386663 z m -2.346666,6.1600003 c -0.674667,0.762667 -1.877334,1.525333 -2.024,1.466667 -0.205334,-0.05867 -0.205334,-0.469334 0.205333,-1.613334 0.264,0.234667 1.437333,0.264 1.818667,0.146667 z"
       style="font-style:normal;font-variant:normal;font-weight:normal;font-stretch:normal;font-size:29.33333397px;font-family:Glarious;-inkscape-font-specification:Glarious;fill:#ffff00"
       id="path828" />
    <path
       d="m 73.26517,12.522157 c 0.088,0.02933 0.44,-0.997333 1.994666,-1.730666 -1.349333,3.226667 -3.285333,6.394667 -5.837333,8.389333 -0.352,0.293334 3.285333,1.730667 3.402667,1.408 0.792,-2.229333 2.346666,-6.218666 4.312,-10.325333 0.997333,-0.146667 2.229333,-0.146667 3.813333,0.05867 0.05867,0 1.408,-2.7866663 1.290667,-2.757333 -1.144,0.2933334 -2.757334,0.6453334 -4.312,1.0560001 0.674666,-1.3493334 1.408,-2.6986668 2.170666,-3.9600001 1.114667,0.1466666 2.082667,0.3226666 2.669334,0.176 0.528,-0.1173334 1.584,-2.7573334 1.76,-3.5493334 -1.202667,0.7626667 -9.650667,0 -12.496,3.1093334 -1.378667,1.496 0.322666,3.8720001 0.410666,3.6373334 0.938667,-2.6400001 2.786667,-3.4320001 4.693334,-3.5493334 -0.02933,1.672 -0.733334,3.2853334 -1.261334,4.7226667 -1.349333,0.4106667 -2.434666,0.8213333 -2.816,1.2320003 -0.968,1.026666 -0.05867,1.994666 0.205334,2.082666 z"
       style="font-style:normal;font-variant:normal;font-weight:normal;font-stretch:normal;font-size:29.33333397px;font-family:Glarious;-inkscape-font-specification:Glarious;fill:#ffff00"
       id="path830" />
    <path
       d="m 89.545152,8.0634907 c 0.293333,-0.352 -1.290667,-1.056 -1.642667,-0.9973333 -0.02933,0.2346666 -0.264,0.528 -0.410667,0.7626666 -2.933333,-5.0453334 -8.154667,6.776 -7.333333,7.773334 0.322666,0.381333 1.173333,1.202666 1.642666,1.026666 0.645334,-0.264 2.64,-2.786666 3.549334,-3.842667 -0.528,0.938667 -0.909334,2.552001 -0.821334,2.845334 0.176,0.616 1.496,1.202667 1.672,1.056 1.085334,-1.056 4.077334,-4.869334 4.869334,-6.6 0.146667,-0.3226669 -1.026667,0 -1.026667,0 -0.762666,1.466666 -2.904,4.106667 -3.344,4.341333 -0.293333,0.176 1.525333,-4.8106666 2.845334,-6.3653333 z m -7.450667,6.6586673 c 0.146666,-1.378667 2.904,-8.037334 4.957333,-6.2773339 -0.762667,1.3786667 -2.288,3.4906669 -4.957333,6.2773339 z"
       style="font-style:normal;font-variant:normal;font-weight:normal;font-stretch:normal;font-size:29.33333397px;font-family:Glarious;-inkscape-font-specification:Glarious;fill:#ffff00"
       id="path832" />
    <path
       d="m 97.406458,8.4448241 c 0.205334,-0.3520001 -1.496,-1.7893334 -1.613333,-1.3493334 -0.469333,1.7306667 -4.869333,7.0400003 -5.749333,7.8906673 0.352,-0.792 1.554666,-4.136001 3.109333,-6.4826673 0.234667,-0.3813333 -1.466667,-1.9066667 -1.701333,-1.5253333 -1.378667,2.2293333 -2.992,7.0400006 -3.138667,7.7440006 -0.117333,0.616 1.232,1.994666 1.965333,1.789333 0.498667,-0.528 2.258667,-2.405333 3.285334,-3.842667 -0.586667,1.232 -0.762667,2.112 -0.674667,2.816 0.117333,0.821334 1.525333,1.290667 1.672,1.144 0.352,-0.352 3.050667,-3.930667 4.517333,-6.453333 0.088,-0.1760002 -1.026666,0.02933 -1.026666,0.02933 -1.32,1.936 -2.728,3.754667 -3.52,4.752 0.205333,-1.906667 1.994666,-5.1626666 2.874666,-6.5119999 z"
       style="font-style:normal;font-variant:normal;font-weight:normal;font-stretch:normal;font-size:29.33333397px;font-family:Glarious;-inkscape-font-specification:Glarious;fill:#ffff00"
       id="path834" />
    <path
       d="m 105.03311,10.234157 c 0.088,-0.05867 -0.76267,-0.205333 -1.26133,0 -0.38134,0.176 -1.61334,1.026667 -3.08,2.082667 -0.20534,-0.498667 -0.44,-1.026667 -0.64534,-1.642667 -0.410665,-1.1733329 2.464,-2.4346663 3.28534,-2.1119996 0.49866,0.2053333 -0.264,-2.3173334 -1.144,-2.1120001 -1.08534,0.2640001 -4.429338,2.2293334 -4.165338,3.9306667 0.117333,0.909333 1.085333,1.642667 1.408,2.581333 -1.584,1.202667 -2.962667,2.024001 -3.168,2.317334 -0.704,0.938667 1.701333,1.936 2.64,1.290667 1.818668,-1.232 2.757338,-2.082667 2.111998,-3.432001 1.29067,-0.938666 2.64,-2.024 4.01867,-2.904 z m -7.304001,5.221334 c 0.088,-0.117333 0.968,-0.850667 1.906666,-1.349333 0.05867,1.056 -1.349333,1.408 -1.906666,1.349333 z"
       style="font-style:normal;font-variant:normal;font-weight:normal;font-stretch:normal;font-size:29.33333397px;font-family:Glarious;-inkscape-font-specification:Glarious;fill:#ffff00"
       id="path836" />
    <path
       d="m 110.92909,4.8074906 c 0.0293,0 -0.41067,-0.9093333 -0.616,-0.9093333 h -1.11467 l 0.44,-0.5866667 c 0.23467,-0.3226667 -1.99466,-1.9066667 -2.34666,-1.2026667 -0.11734,0.2346667 -0.29334,0.7626667 -0.67467,1.5840001 l -3.63733,-0.4693334 c -0.23467,0 1.056,1.6426667 1.43733,1.672 l 1.70133,-0.029333 c -0.90933,1.6426667 -3.37333,6.8346667 -3.54933,9.4746667 -0.0587,0.88 1.34933,2.845334 1.76,2.141334 0.38133,-0.645334 3.08,-3.813334 4.78133,-6.160001 0.11734,-0.176 -1.232,-0.088 -1.232,-0.088 -1.496,1.818667 -3.05066,3.461334 -3.46133,3.813334 -0.088,-1.496 2.93333,-7.714667 4.25333,-9.2400004 z"
       style="font-style:normal;font-variant:normal;font-weight:normal;font-stretch:normal;font-size:29.33333397px;font-family:Glarious;-inkscape-font-specification:Glarious;fill:#ffff00"
       id="path838" />
    <path
       d="m 110.78239,9.1194907 c 0.20534,-0.2933333 -1.87733,-1.2613333 -2.05333,-0.968 -0.176,0.2933334 -2.66933,5.4853333 -2.49333,6.2480003 0.264,1.114667 1.848,2.581333 2.2,2.170667 0.704,-0.821334 3.46133,-4.634667 4.51733,-6.306667 0.11733,-0.176 -1.02667,0 -1.02667,0 -0.67466,1.056 -3.10933,4.136 -3.784,5.016 -0.55733,0.733333 -0.088,-2.170667 2.64,-6.1600003 z m 0.0587,-1.0853333 c 0.11733,-0.2933334 0.93867,-1.4960001 1.52533,-1.8480001 -0.20533,-0.4106666 -1.43733,-1.408 -1.76,-1.1733333 -0.264,0.2053333 -1.11466,2.3173334 -0.99733,2.4053334 0.14667,0.088 1.17333,0.7626667 1.232,0.616 z"
       style="font-style:normal;font-variant:normal;font-weight:normal;font-stretch:normal;font-size:29.33333397px;font-family:Glarious;-inkscape-font-specification:Glarious;fill:#ffff00"
       id="path840" />
    <path
       d="m 119.17169,8.2101574 c 0.20533,-0.4106667 -1.20267,-1.8773334 -1.52533,-1.6720001 -0.704,0.058667 -3.52,3.5199997 -4.752,5.0746667 0.44,-1.408 1.20266,-2.4639999 1.52533,-3.52 0.11733,-0.4106666 -1.496,-1.3493333 -1.43733,-0.9386666 0.11733,0.7333333 -2.992,7.3333336 -2.904,7.9200006 0.088,0.586666 1.90666,1.701333 1.936,1.496 0.528,-2.757334 2.992,-6.189334 5.07466,-8.1840006 -0.76266,1.2906667 -3.28533,5.4560006 -2.992,6.3360006 0.23467,0.733333 1.78934,1.789333 2.25867,1.818666 0.76267,-0.381333 3.256,-4.018667 4.576,-6.365333 0.11733,-0.1760002 -1.02667,0 -1.02667,0 -1.144,1.818666 -3.22666,4.546667 -3.75466,4.928 -0.49867,-1.085333 2.14133,-5.8080003 3.02133,-6.8933336 z"
       style="font-style:normal;font-variant:normal;font-weight:normal;font-stretch:normal;font-size:29.33333397px;font-family:Glarious;-inkscape-font-specification:Glarious;fill:#ffff00"
       id="path842" />
    <path
       d="m 126.41702,9.1194907 c 0.41067,-1.936 -2.024,-2.728 -3.84266,-2.464 -1.46667,0.2053333 -3.81334,4.4880003 -3.72534,8.3013333 -0.088,0.733334 1.34934,2.024 2.2,1.672 0.46934,-0.205333 2.49334,-2.112 3.344,-3.285333 0.76267,-0.44 1.96534,-1.114667 3.63734,-3.109334 -0.0587,-0.205333 -0.99734,-0.205333 -1.11467,-0.05867 -0.67467,0.821333 -1.496,1.466666 -1.76,1.672 0.41067,-0.674667 1.02667,-1.584 1.26133,-2.7280003 z m -1.55466,-1.408 c 0.088,-0.029333 0.55733,1.9946667 -1.20267,4.6346663 -0.90933,0.674667 -2.96267,0.704 -1.78933,-1.496 0.90933,-1.7013329 2.49333,-2.9626663 2.992,-3.1386663 z m -2.34667,6.1600003 c -0.67467,0.762667 -1.87733,1.525333 -2.024,1.466667 -0.20533,-0.05867 -0.20533,-0.469334 0.20533,-1.613334 0.264,0.234667 1.43734,0.264 1.81867,0.146667 z"
       style="font-style:normal;font-variant:normal;font-weight:normal;font-stretch:normal;font-size:29.33333397px;font-family:Glarious;-inkscape-font-specification:Glarious;fill:#ffff00"
       id="path844" />
    <path
       d="m 133.92635,10.234157 c 0.088,-0.05867 -0.76267,-0.205333 -1.26133,0 -0.38134,0.176 -1.61334,1.026667 -3.08,2.082667 -0.20534,-0.498667 -0.44,-1.026667 -0.64534,-1.642667 -0.41066,-1.1733329 2.464,-2.4346663 3.28534,-2.1119996 0.49866,0.2053333 -0.264,-2.3173334 -1.144,-2.1120001 -1.08534,0.2640001 -4.42934,2.2293334 -4.16534,3.9306667 0.11734,0.909333 1.08534,1.642667 1.408,2.581333 -1.584,1.202667 -2.96266,2.024001 -3.168,2.317334 -0.704,0.938667 1.70134,1.936 2.64,1.290667 1.81867,-1.232 2.75734,-2.082667 2.112,-3.432001 1.29067,-0.938666 2.64,-2.024 4.01867,-2.904 z m -7.304,5.221334 c 0.088,-0.117333 0.968,-0.850667 1.90667,-1.349333 0.0587,1.056 -1.34934,1.408 -1.90667,1.349333 z"
       style="font-style:normal;font-variant:normal;font-weight:normal;font-stretch:normal;font-size:29.33333397px;font-family:Glarious;-inkscape-font-specification:Glarious;fill:#ffff00"
       id="path846" />
    <path
       d="m 156.77699,4.2794906 c 0.088,-0.1466666 -1.26133,-2.376 -1.37867,-2.2586667 -0.99733,1.2613334 -5.95466,7.8026669 -8.096,12.0266671 0.55734,-1.378667 4.224,-9.9733337 4.752,-11.3226671 0.088,-0.2933333 -1.20266,-2.75733336 -1.496,-2.34666668 -1.232,1.67200008 -5.28,7.15733348 -9.18133,14.34400078 -0.32267,0.469333 5.04533,-10.8240007 5.456,-11.9973341 0.0587,-0.2053333 -2.34667,-1.7013333 -2.34667,-1.3786667 0,3.5493334 -5.51467,14.4026668 -6.04267,16.2506668 -0.176,0.616 2.43467,2.669334 2.52267,2.405334 0.88,-2.64 5.74934,-12.6426673 9.504,-17.2480007 -0.67466,1.408 -5.86666,11.2053337 -5.86666,12.4080007 0,0.498666 2.376,2.493333 2.52266,2.258666 1.29067,-2.288 4.576,-8.4479999 7.24534,-11.88 -0.58667,1.32 -4.84,8.770667 -4.81067,10.706667 0,0.469333 2.49333,2.082667 2.34667,1.525333 -0.704,-2.845333 3.28533,-10.5013333 4.86933,-13.4933334 z"
       style="font-style:normal;font-variant:normal;font-weight:normal;font-stretch:normal;font-size:29.33333397px;font-family:Glarious;-inkscape-font-specification:Glarious;fill:#ffff00"
       id="path848" />
    <path
       d="m 161.99828,9.1194907 c 0.41067,-1.936 -2.024,-2.728 -3.84266,-2.464 -1.46667,0.2053333 -3.81334,4.4880003 -3.72534,8.3013333 -0.088,0.733334 1.34934,2.024 2.2,1.672 0.46934,-0.205333 2.49334,-2.112 3.344,-3.285333 0.76267,-0.44 1.96534,-1.114667 3.63734,-3.109334 -0.0587,-0.205333 -0.99734,-0.205333 -1.11467,-0.05867 -0.67467,0.821333 -1.496,1.466666 -1.76,1.672 0.41067,-0.674667 1.02667,-1.584 1.26133,-2.7280003 z m -1.55466,-1.408 c 0.088,-0.029333 0.55733,1.9946667 -1.20267,4.6346663 -0.90933,0.674667 -2.96267,0.704 -1.78933,-1.496 0.90933,-1.7013329 2.49333,-2.9626663 2.992,-3.1386663 z m -2.34667,6.1600003 c -0.67467,0.762667 -1.87733,1.525333 -2.024,1.466667 -0.20533,-0.05867 -0.20533,-0.469334 0.20533,-1.613334 0.264,0.234667 1.43734,0.264 1.81867,0.146667 z"
       style="font-style:normal;font-variant:normal;font-weight:normal;font-stretch:normal;font-size:29.33333397px;font-family:Glarious;-inkscape-font-specification:Glarious;fill:#ffff00"
       id="path850" />
    <path
       d="m 163.64094,7.124824 c -0.55733,1.1146667 -1.99466,5.602667 -2.66933,7.48 -0.176,0.792 1.32,2.2 1.78933,2.024 1.61334,-5.925333 3.84267,-7.3626666 3.98934,-7.4799999 0.76266,-0.528 -0.38134,0.8799999 -0.82134,1.6719999 -0.088,0.176 0.82134,1.026667 1.34934,0.792 0.58666,-0.264 1.64266,-0.762667 2.464,-1.378667 0,0 -0.58667,-0.4399996 -0.64534,-0.3813329 -0.58666,0.4399999 -1.70133,1.1439999 -2.22933,1.2026669 -0.264,0.02933 1.056,-1.2613336 2.05333,-2.8746669 0.23467,-0.3813334 -0.85066,-1.7306668 -1.29066,-1.4373334 -0.90934,0.616 -3.344,3.6666663 -4.60534,6.1013333 0.41067,-1.496 2.05334,-4.8693333 2.43467,-5.1626666 0.088,-0.058667 -1.408,-1.3786667 -1.81867,-0.5573334 z"
       style="font-style:normal;font-variant:normal;font-weight:normal;font-stretch:normal;font-size:29.33333397px;font-family:Glarious;-inkscape-font-specification:Glarious;fill:#ffff00"
       id="path852" />
    <path
       d="m 176.40094,8.0634907 c 0.29333,-0.352 -1.29067,-1.056 -1.64267,-0.9973333 -0.0293,0.2346666 -0.264,0.528 -0.41066,0.7626666 -2.93334,-5.0453334 -8.15467,6.776 -7.33334,7.773334 0.32267,0.381333 1.17334,1.202666 1.64267,1.026666 0.64533,-0.264 2.64,-2.786666 3.54933,-3.842667 -0.528,0.938667 -0.90933,2.552001 -0.82133,2.845334 0.176,0.616 1.496,1.202667 1.672,1.056 1.08533,-1.056 4.07733,-4.869334 4.86933,-6.6 0.14667,-0.3226669 -1.02666,0 -1.02666,0 -0.76267,1.466666 -2.904,4.106667 -3.344,4.341333 -0.29334,0.176 1.52533,-4.8106666 2.84533,-6.3653333 z m -7.45067,6.6586673 c 0.14667,-1.378667 2.904,-8.037334 4.95734,-6.2773339 -0.76267,1.3786667 -2.288,3.4906669 -4.95734,6.2773339 z"
       style="font-style:normal;font-variant:normal;font-weight:normal;font-stretch:normal;font-size:29.33333397px;font-family:Glarious;-inkscape-font-specification:Glarious;fill:#ffff00"
       id="path854" />
    <path
       d="m 182.47291,3.4874906 c 0.44,-0.528 -1.848,-1.4373333 -2.22933,-1.4666667 -0.23467,0 -4.19467,9.6800001 -5.04533,11.9680001 -0.41067,1.114667 0.85066,2.434667 1.87733,2.64 0.73333,0.146667 3.19733,-3.989333 4.45867,-6.453333 0.088,-0.1760002 -1.144,-0.02933 -1.144,-0.02933 -1.08534,1.965334 -2.904,5.016001 -3.22667,5.016001 -0.46933,-0.645334 1.76,-7.3040006 5.30933,-11.6746674 z"
       style="font-style:normal;font-variant:normal;font-weight:normal;font-stretch:normal;font-size:29.33333397px;font-family:Glarious;-inkscape-font-specification:Glarious;fill:#ffff00"
       id="path856" />
    <path
       d="m 181.68087,11.759491 c 0.23466,0.117333 0.90933,0.410666 1.61333,0.352 1.02667,-0.088 2.08267,-1.554667 2.49333,-3.3440003 0.14667,-0.704 -1.90666,-2.0826667 -2.75733,-1.9653333 -1.52533,0.2346666 -3.75467,5.0159996 -4.28267,7.4213336 -0.23466,1.056 1.20267,2.229333 1.90667,2.405333 0.968,0.234667 5.632,-3.901333 6.83467,-6.336 -0.0587,-0.205333 -0.93867,-0.146667 -1.02667,0 -1.90667,3.050667 -5.632,4.898667 -5.92533,4.928 -0.32267,0.02933 0.64533,-2.405333 1.144,-3.461333 z m 2.69866,-2.8746669 c 0.29334,0.2053333 -0.29333,2.1999999 -1.20266,2.3173329 -0.58667,0.088 -0.93867,-0.117333 -1.20267,-0.205333 0.176,-0.557333 1.64267,-2.6986666 2.40533,-2.1119999 z"
       style="font-style:normal;font-variant:normal;font-weight:normal;font-stretch:normal;font-size:29.33333397px;font-family:Glarious;-inkscape-font-specification:Glarious;fill:#ffff00"
       id="path858" />
    <path
       d="m 193.47282,10.234157 c 0.088,-0.05867 -0.76267,-0.205333 -1.26133,0 -0.38134,0.176 -1.61334,1.026667 -3.08,2.082667 -0.20534,-0.498667 -0.44,-1.026667 -0.64534,-1.642667 -0.41066,-1.1733329 2.464,-2.4346663 3.28534,-2.1119996 0.49866,0.2053333 -0.264,-2.3173334 -1.144,-2.1120001 -1.08534,0.2640001 -4.42934,2.2293334 -4.16534,3.9306667 0.11734,0.909333 1.08534,1.642667 1.408,2.581333 -1.584,1.202667 -2.96266,2.024001 -3.168,2.317334 -0.704,0.938667 1.70134,1.936 2.64,1.290667 1.81867,-1.232 2.75734,-2.082667 2.112,-3.432001 1.29067,-0.938666 2.64,-2.024 4.01867,-2.904 z m -7.304,5.221334 c 0.088,-0.117333 0.968,-0.850667 1.90667,-1.349333 0.0587,1.056 -1.34934,1.408 -1.90667,1.349333 z"
       style="font-style:normal;font-variant:normal;font-weight:normal;font-stretch:normal;font-size:29.33333397px;font-family:Glarious;-inkscape-font-specification:Glarious;fill:#ffff00"
       id="path860" />
  </g>
</svg>
